FILE "Tomb Raider II - Starring Lara Croft (France) (Track 01).bin" BINARY
  TRACK 01 MODE2/2352
    INDEX 01 00:00:00
  TRACK 02 AUDIO
    INDEX 00 23:06:03
    INDEX 01 23:08:03
  TRACK 03 AUDIO
    INDEX 00 24:33:36
    INDEX 01 24:35:36
  TRACK 04 AUDIO
    INDEX 00 26:29:61
    INDEX 01 26:31:61
  TRACK 05 AUDIO
    INDEX 00 28:47:46
    INDEX 01 28:49:46
  TRACK 06 AUDIO
    INDEX 00 28:59:32
    INDEX 01 29:01:32
  TRACK 07 AUDIO
    INDEX 00 29:09:03
    INDEX 01 29:11:03
  TRACK 08 AUDIO
    INDEX 00 29:16:08
    INDEX 01 29:18:08
  TRACK 09 AUDIO
    INDEX 00 29:23:10
    INDEX 01 29:25:10
  TRACK 10 AUDIO
    INDEX 00 29:30:51
    INDEX 01 29:32:51
  TRACK 11 AUDIO
    INDEX 00 29:46:42
    INDEX 01 29:48:42
  TRACK 12 AUDIO
    INDEX 00 30:08:30
    INDEX 01 30:10:30
  TRACK 13 AUDIO
    INDEX 00 30:21:74
    INDEX 01 30:23:74
  TRACK 14 AUDIO
    INDEX 00 30:34:32
    INDEX 01 30:36:32
  TRACK 15 AUDIO
    INDEX 00 30:41:34
    INDEX 01 30:43:34
  TRACK 16 AUDIO
    INDEX 00 30:48:35
    INDEX 01 30:50:35
  TRACK 17 AUDIO
    INDEX 00 30:55:36
    INDEX 01 30:57:36
  TRACK 18 AUDIO
    INDEX 00 31:07:63
    INDEX 01 31:09:63
  TRACK 19 AUDIO
    INDEX 00 31:14:64
    INDEX 01 31:16:64
  TRACK 20 AUDIO
    INDEX 00 31:21:65
    INDEX 01 31:23:65
  TRACK 21 AUDIO
    INDEX 00 31:28:68
    INDEX 01 31:30:68
  TRACK 22 AUDIO
    INDEX 00 31:35:71
    INDEX 01 31:37:71
  TRACK 23 AUDIO
    INDEX 00 31:42:74
    INDEX 01 31:44:74
  TRACK 24 AUDIO
    INDEX 00 32:01:48
    INDEX 01 32:03:48
  TRACK 25 AUDIO
    INDEX 00 32:12:49
    INDEX 01 32:14:49
  TRACK 26 AUDIO
    INDEX 00 32:19:51
    INDEX 01 32:21:51
  TRACK 27 AUDIO
    INDEX 00 33:13:41
    INDEX 01 33:15:41
  TRACK 28 AUDIO
    INDEX 00 35:13:52
    INDEX 01 35:15:52
  TRACK 29 AUDIO
    INDEX 00 37:13:35
    INDEX 01 37:15:35
  TRACK 30 AUDIO
    INDEX 00 40:01:69
    INDEX 01 40:03:69
  TRACK 31 AUDIO
    INDEX 00 43:07:54
    INDEX 01 43:09:54
  TRACK 32 AUDIO
    INDEX 00 43:17:36
    INDEX 01 43:19:36
  TRACK 33 AUDIO
    INDEX 00 43:24:09
    INDEX 01 43:26:09
  TRACK 34 AUDIO
    INDEX 00 43:42:44
    INDEX 01 43:44:44
  TRACK 35 AUDIO
    INDEX 00 44:39:03
    INDEX 01 44:41:03
  TRACK 36 AUDIO
    INDEX 00 45:00:69
    INDEX 01 45:02:69
  TRACK 37 AUDIO
    INDEX 00 47:41:63
    INDEX 01 47:43:63
  TRACK 38 AUDIO
    INDEX 00 47:56:01
    INDEX 01 47:58:01
  TRACK 39 AUDIO
    INDEX 00 48:09:33
    INDEX 01 48:11:33
  TRACK 40 AUDIO
    INDEX 00 48:26:21
    INDEX 01 48:28:21
  TRACK 41 AUDIO
    INDEX 00 48:46:09
    INDEX 01 48:48:09
  TRACK 42 AUDIO
    INDEX 00 49:47:15
    INDEX 01 49:49:15
  TRACK 43 AUDIO
    INDEX 00 50:22:45
    INDEX 01 50:24:45
  TRACK 44 AUDIO
    INDEX 00 50:28:74
    INDEX 01 50:30:74
  TRACK 45 AUDIO
    INDEX 00 50:44:73
    INDEX 01 50:46:73
  TRACK 46 AUDIO
    INDEX 00 50:56:71
    INDEX 01 50:58:71
  TRACK 47 AUDIO
    INDEX 00 51:11:23
    INDEX 01 51:13:23
  TRACK 48 AUDIO
    INDEX 00 51:21:56
    INDEX 01 51:23:56
  TRACK 49 AUDIO
    INDEX 00 54:06:64
    INDEX 01 54:08:64
  TRACK 50 AUDIO
    INDEX 00 55:20:14
    INDEX 01 55:22:14
  TRACK 51 AUDIO
    INDEX 00 55:29:61
    INDEX 01 55:31:61
  TRACK 52 AUDIO
    INDEX 00 56:13:69
    INDEX 01 56:15:69
  TRACK 53 AUDIO
    INDEX 00 56:25:54
    INDEX 01 56:27:54
  TRACK 54 AUDIO
    INDEX 00 57:16:60
    INDEX 01 57:18:60
  TRACK 55 AUDIO
    INDEX 00 60:48:29
    INDEX 01 60:50:29
  TRACK 56 AUDIO
    INDEX 00 64:20:11
    INDEX 01 64:22:11
  TRACK 57 AUDIO
    INDEX 00 66:07:64
    INDEX 01 66:09:64
  TRACK 58 AUDIO
    INDEX 00 66:33:34
    INDEX 01 66:35:34
  TRACK 59 AUDIO
    INDEX 00 66:57:09
    INDEX 01 66:59:09
  TRACK 60 AUDIO
    INDEX 00 67:16:63
    INDEX 01 67:18:63
  TRACK 61 AUDIO
    INDEX 00 70:05:35
    INDEX 01 70:07:35
REM LEADOUT 70:25:14
